<svg width="278" height="186" viewBox="0 0 278 186" fill="none" xmlns="http://www.w3.org/2000/svg">
<path fill-rule="evenodd" clip-rule="evenodd" d="M186 186V93C186 41.6375 144.362 0 93 0C41.6375 0 0 41.6375 0 93C0 144.362 41.6375 186 93 186H186ZM138.204 139.204V92.7038C138.204 67.0226 117.385 46.2038 91.7038 46.2038C66.0226 46.2038 45.2038 67.0226 45.2038 92.7038C45.2038 118.385 66.0226 139.204 91.7038 139.204H138.204Z" fill="#172E7D"/>
<path fill-rule="evenodd" clip-rule="evenodd" d="M278 186H185V93C185 41.6375 226.638 0 278 0V46.2047C252.455 46.3641 231.796 67.1214 231.796 92.7038V139.204H278V186Z" fill="#172E7D"/>
</svg>
