<svg width="106" height="68" viewBox="0 0 106 68" fill="none" xmlns="http://www.w3.org/2000/svg">
<g clip-path="url(#clip0_108_634)">
<path d="M9.11025 32.9071C9.07152 32.9305 8.99582 32.92 8.88314 32.8758C8.76855 32.8392 8.68876 32.7619 8.64377 32.6437C8.61623 32.5215 8.61582 32.3896 8.64254 32.2478C8.66927 32.1061 8.71718 31.9119 8.78627 31.6653C8.89994 31.405 9.06576 31.0668 9.28373 30.6509C9.50169 30.235 9.74377 29.7715 10.0099 29.2604C10.2858 28.7434 10.5645 28.2148 10.8462 27.6745C10.9831 27.4199 11.094 27.2042 11.1789 27.0274C11.2715 26.8525 11.337 26.7203 11.3755 26.631C11.4238 26.5357 11.4479 26.4881 11.4479 26.4881C11.4363 26.5018 11.4208 26.5144 11.4014 26.5261C11.3898 26.5397 11.3782 26.5534 11.3666 26.567C11.355 26.5806 11.3434 26.5942 11.3318 26.6078C11.3318 26.6078 11.3096 26.6312 11.2651 26.6779C11.2284 26.7265 11.151 26.8063 11.033 26.9173C10.9479 26.9951 10.8628 27.0895 10.7778 27.2004C10.6927 27.3112 10.5593 27.4513 10.3774 27.6207C10.1957 27.8231 9.98973 28.0565 9.75966 28.3211C9.52958 28.5857 9.33813 28.7939 9.18532 28.9457C9.10987 29.0177 9.04118 29.0791 8.97925 29.1297C8.92508 29.1823 8.88544 29.2261 8.86032 29.2611C8.80818 29.3388 8.73182 29.4312 8.63126 29.5383C8.53069 29.6453 8.41944 29.7456 8.29749 29.8391C8.23364 29.8975 8.15138 29.9637 8.05071 30.0377C7.95781 30.1137 7.8746 30.1838 7.80107 30.2481C7.72945 30.3046 7.69364 30.3328 7.69364 30.3328C7.66661 30.3756 7.59792 30.4369 7.48757 30.5168C7.37722 30.5967 7.24458 30.6834 7.08964 30.7771C6.94439 30.8648 6.79717 30.9438 6.64799 31.0142C6.32248 31.1646 6.0637 31.2449 5.87165 31.2552C5.68736 31.2674 5.50558 31.1525 5.32633 30.9106C5.25602 30.7614 5.20512 30.617 5.17365 30.4774C5.14409 30.33 5.15709 30.1437 5.21266 29.9185C5.26824 29.6932 5.38468 29.3882 5.562 29.0035C5.6796 28.7606 5.80493 28.5031 5.93797 28.2311C6.07877 27.9609 6.21671 27.7024 6.35176 27.4556C6.48874 27.201 6.60836 26.9833 6.71064 26.8026C6.8226 26.6159 6.89981 26.4867 6.94228 26.4148C7.01348 26.2263 7.04228 26.1263 7.02866 26.1147C7.01696 26.0953 6.96758 26.1285 6.88054 26.2141C6.80509 26.2861 6.66004 26.4399 6.4454 26.6753C6.23075 26.9108 5.98519 27.188 5.70871 27.5071C5.44001 27.8281 5.17518 28.15 4.91424 28.4729C4.45015 28.9846 4.0605 29.4117 3.74529 29.7542C3.43008 30.0966 3.17287 30.371 2.97366 30.5773C2.77636 30.7758 2.62451 30.9238 2.51809 31.0211C2.41753 31.1281 2.34208 31.2002 2.29175 31.2372C2.24726 31.2839 2.21534 31.3131 2.19597 31.3248C2.08138 31.2883 1.99382 31.209 1.9333 31.0869C1.87277 30.9649 1.83257 30.8273 1.81269 30.674C1.81632 30.5925 1.82479 30.5081 1.8381 30.4207C1.85142 30.3334 1.88218 30.2421 1.93039 30.1469C1.98829 30.0458 2.06363 29.9408 2.15643 29.8319C2.30723 29.6548 2.44647 29.5079 2.57417 29.3911C2.70187 29.2743 2.7812 29.2032 2.81217 29.1779C2.86442 29.1331 2.90986 29.0825 2.94849 29.0261C2.98712 28.9697 3.01703 28.9153 3.03821 28.8629C3.08854 28.8258 3.17075 28.7431 3.28483 28.6147C3.40668 28.4882 3.5314 28.3501 3.659 28.2003C3.74604 28.1146 3.86598 27.9959 4.01879 27.8441C4.17352 27.6845 4.33889 27.5152 4.51491 27.3361C4.69283 27.1493 4.85044 26.9781 4.98772 26.8224C5.48086 26.2932 5.87343 25.8709 6.16544 25.5557C6.45937 25.2327 6.66151 25.0312 6.77186 24.9513C6.83581 24.9259 6.90061 24.8636 6.96628 24.7645C7.04162 24.6595 7.10154 24.5836 7.14602 24.5369C7.30842 24.3462 7.46123 24.1944 7.60446 24.0814C7.75738 23.9626 7.87656 23.9137 7.96199 23.9348C8.02413 23.9501 8.09605 23.9926 8.17776 24.0622C8.26724 24.1337 8.34804 24.2237 8.42016 24.3321C8.48069 24.4542 8.52482 24.6093 8.55257 24.7974C8.59 24.9797 8.55188 25.201 8.43821 25.4613C8.39978 25.5837 8.34299 25.7304 8.26785 25.9013C8.19462 26.0645 8.1214 26.2278 8.04817 26.391C7.97494 26.5542 7.90842 26.6902 7.84861 26.799C7.70024 27.1332 7.54794 27.45 7.3917 27.7493C7.24514 28.0427 7.10822 28.3138 6.98093 28.5625C6.85364 28.8113 6.74567 29.0318 6.65701 29.2242C6.57026 29.4088 6.5038 29.5613 6.4576 29.6818C6.41917 29.8041 6.41459 29.8895 6.44384 29.9379C6.46523 29.9514 6.49821 29.9513 6.54279 29.9376C6.59706 29.9181 6.63968 29.8956 6.67065 29.8703C6.73258 29.8196 6.79063 29.7681 6.84479 29.7155C6.89896 29.6629 6.96861 29.5977 7.05374 29.5199C7.22017 29.3796 7.39432 29.2248 7.57618 29.0555C7.76773 28.8803 7.99408 28.6642 8.25522 28.4073C8.52605 28.1445 8.84908 27.8204 9.22431 27.4351C9.60145 27.042 10.0637 26.5545 10.611 25.9727C10.8567 25.7449 11.0946 25.5152 11.3248 25.2836C11.555 25.052 11.7543 24.8787 11.9228 24.7637C12.0699 24.6682 12.2242 24.6609 12.3854 24.7419C12.5545 24.8248 12.6937 24.9621 12.8029 25.1539C12.9122 25.3456 12.9468 25.556 12.9067 25.7851C12.8877 25.8958 12.8165 26.0842 12.6931 26.3504C12.5794 26.6108 12.4377 26.9013 12.268 27.2219C12.0982 27.5426 11.9187 27.8526 11.7295 28.152C11.6736 28.2783 11.5917 28.4435 11.4836 28.6476C11.3756 28.8516 11.2628 29.0586 11.145 29.2685C11.0273 29.4785 10.9193 29.666 10.8208 29.8313C10.7013 30.0819 10.6029 30.2801 10.5258 30.4259C10.4564 30.5736 10.3968 30.7484 10.347 30.9503C10.2464 31.0574 10.1557 31.2245 10.0749 31.4518C9.99414 31.679 9.92309 31.9169 9.86176 32.1655C9.75596 32.4607 9.63724 32.6581 9.50561 32.7574C9.38174 32.8587 9.30524 32.9016 9.27608 32.8862C9.2197 32.8476 9.16442 32.8545 9.11025 32.9071ZM13.3542 33.1137C13.0886 33.1882 12.8209 33.2046 12.5511 33.1627C12.2909 33.115 12.0588 33.0207 11.8546 32.8796C11.6524 32.7309 11.5034 32.5499 11.4076 32.3368C11.3549 32.2166 11.3204 32.0392 11.3041 31.8045C11.2898 31.562 11.3529 31.2562 11.4934 30.8871C11.6281 30.5413 11.826 30.207 12.0869 29.8841C12.3556 29.5631 12.6526 29.2944 12.9779 29.078C13.3032 28.8617 13.6298 28.7404 13.9576 28.7141C14.076 28.7021 14.1914 28.7018 14.304 28.713C14.4262 28.7185 14.5786 28.752 14.7612 28.8135C14.9341 28.8809 15.0818 28.9668 15.2044 29.0712C15.3289 29.1678 15.4126 29.2626 15.4556 29.3556C15.5492 29.5105 15.6011 29.6511 15.6111 29.7771C15.6212 29.9032 15.609 30.0197 15.5744 30.1265C15.4742 30.3655 15.2955 30.6057 15.0382 30.847C14.7886 31.0904 14.4835 31.2417 14.1228 31.301C13.9773 31.3228 13.8134 31.3194 13.6309 31.2909C13.4484 31.2623 13.2095 31.1787 12.9142 31.0399C12.7373 30.9551 12.6083 30.9438 12.527 31.0061C12.4534 31.0704 12.3928 31.2161 12.345 31.4433C12.326 31.5869 12.3264 31.7189 12.3462 31.8391C12.3756 31.9535 12.4555 32.0473 12.5857 32.1207C12.7567 32.1958 12.8839 32.2313 12.9673 32.2272C13.0526 32.2153 13.1603 32.1965 13.2902 32.1709C13.3619 32.1474 13.4307 32.119 13.4966 32.0858C13.5702 32.0546 13.64 32.0223 13.7058 31.9891C13.7795 31.9579 13.8386 31.9354 13.8831 31.9217C13.9297 31.9002 13.9733 31.8903 14.014 31.8921C14.0548 31.894 14.0946 31.8997 14.1334 31.9092C14.2169 31.9381 14.287 32.0048 14.3436 32.1094C14.4002 32.214 14.4305 32.308 14.4347 32.3914C14.4193 32.4536 14.3585 32.5333 14.2521 32.6307C14.1476 32.7202 14.014 32.8109 13.8513 32.9026C13.6982 32.9884 13.5326 33.0588 13.3542 33.1137ZM13.8438 30.4782C13.9039 30.4683 13.995 30.4331 14.117 30.3726C14.2468 30.314 14.366 30.2486 14.4744 30.1765C14.5847 30.0966 14.6466 30.0294 14.66 29.9751C14.6811 29.8896 14.6411 29.8015 14.5399 29.7106C14.4465 29.6216 14.3057 29.5745 14.1174 29.5693C14.0515 29.5695 13.9671 29.594 13.8645 29.6428C13.7618 29.6917 13.6562 29.7521 13.5478 29.8243C13.4413 29.8886 13.3464 29.9559 13.2632 30.026C13.1819 30.0883 13.1238 30.1399 13.089 30.1808C13.1105 30.2273 13.165 30.2737 13.2525 30.32C13.3399 30.3662 13.438 30.4028 13.5467 30.4296C13.6633 30.4584 13.7623 30.4746 13.8438 30.4782ZM16.0691 33.9318C15.8983 33.9226 15.776 33.8842 15.702 33.8165C15.6378 33.743 15.5725 33.6568 15.5062 33.5581C15.3973 33.4653 15.3057 33.3521 15.2316 33.2184C15.1594 33.077 15.1114 32.9374 15.0877 32.7998C15.064 32.6621 15.0646 32.5592 15.0897 32.4912C15.18 32.2251 15.315 31.9453 15.4945 31.6518C15.6818 31.3602 15.8944 31.083 16.1322 30.8203C16.3779 30.5596 16.6343 30.3386 16.9015 30.1573C17.1783 29.9702 17.4545 29.8529 17.7299 29.8055C17.9005 29.7817 18.0733 29.7996 18.2481 29.8592C18.4229 29.9188 18.5251 30.0223 18.5546 30.1696C18.6156 30.4236 18.5529 30.5606 18.3667 30.5806C18.3434 30.5748 18.3134 30.5798 18.2765 30.5954C18.2416 30.6033 18.2204 30.6228 18.2127 30.6538C18.2399 30.677 18.3244 30.702 18.4661 30.7287C18.6098 30.7477 18.7553 30.7589 18.9028 30.7623C19.06 30.7599 19.1666 30.745 19.2228 30.7176C19.2752 30.7058 19.313 30.7028 19.3363 30.7086C19.3596 30.7143 19.4159 30.7364 19.5053 30.775C19.6278 30.8464 19.6823 30.9093 19.6689 30.9637C19.6612 30.9947 19.6604 31.0481 19.6665 31.1237C19.6744 31.1916 19.6939 31.2294 19.725 31.2371C19.7775 31.2582 19.7757 31.3155 19.7197 31.4088C19.6715 31.504 19.5563 31.5868 19.3742 31.6572C19.2036 31.714 19.095 31.7532 19.0485 31.7747C19.0117 31.7903 18.9944 31.8437 18.9967 31.9349C19.0224 32.0978 18.9744 32.2755 18.8528 32.468C18.7311 32.6604 18.561 32.8492 18.3423 33.0342C18.1236 33.2192 17.8767 33.3849 17.6017 33.5312C17.3363 33.6718 17.066 33.7822 16.7907 33.8626C16.5251 33.9372 16.2846 33.9602 16.0691 33.9318ZM16.3455 32.9618C16.3766 32.9694 16.4348 32.9673 16.5201 32.9554C16.6074 32.9357 16.6772 32.92 16.7295 32.9082C16.7683 32.8848 16.8157 32.8594 16.8719 32.8321C16.9378 32.7989 16.9872 32.7822 17.0202 32.7821C17.0512 32.7898 17.0735 32.7829 17.0871 32.7616C17.1025 32.7324 17.144 32.6809 17.2117 32.6069C17.2813 32.5252 17.4081 32.4123 17.5919 32.2681C17.7894 32.1356 17.9239 32.0246 17.9955 31.9351C18.0689 31.8378 18.1015 31.7223 18.0933 31.5884C18.0932 31.5555 18.0747 31.5303 18.0378 31.5129C18.0087 31.4975 17.9707 31.4676 17.924 31.4231C17.8464 31.4039 17.7872 31.4099 17.7465 31.4411C17.7156 31.4664 17.666 31.4336 17.5978 31.3426L17.4689 31.0636L17.222 31.2128C17.067 31.3064 16.9161 31.434 16.7691 31.5955C16.6299 31.7589 16.5092 31.931 16.4069 32.1117C16.3046 32.2925 16.2275 32.4547 16.1756 32.5985C16.1391 32.7131 16.1393 32.7955 16.1763 32.8459C16.2134 32.8962 16.2698 32.9348 16.3455 32.9618ZM20.0622 34.645C19.9457 34.6163 19.8502 34.5021 19.7759 34.3025C19.7034 34.0951 19.6639 33.8546 19.6572 33.5811C19.6583 33.3094 19.6973 33.0512 19.7742 32.8065C19.8355 32.558 19.896 32.3628 19.9557 32.221C20.0251 32.0733 20.0935 31.9295 20.161 31.7896C20.1958 31.7487 20.217 31.7128 20.2247 31.6817C20.2401 31.6525 20.2604 31.604 20.2854 31.536C20.3182 31.4699 20.3741 31.3601 20.4532 31.2066C20.5168 31.0822 20.5747 30.9811 20.6269 30.9034C20.6868 30.8275 20.7322 30.7769 20.7632 30.7516C20.887 30.6503 21.0101 30.6024 21.1324 30.6078C21.2565 30.6055 21.3585 30.643 21.4383 30.7204C21.5259 30.7997 21.564 30.8956 21.5527 31.0082C21.5897 31.0585 21.591 31.1536 21.5565 31.2934C21.5317 31.4274 21.4894 31.5653 21.4297 31.7071C21.3719 31.8411 21.3121 31.9335 21.2501 31.9841C21.225 32.0191 21.1807 32.1153 21.1171 32.2727C21.0614 32.4319 20.9998 32.598 20.9324 32.7709C20.8728 32.9457 20.8179 33.0846 20.7678 33.1876C20.71 33.3217 20.6957 33.4129 20.725 33.4613C20.7639 33.5039 20.8502 33.4881 20.9839 33.414C21.1272 33.334 21.3256 33.1811 21.5791 32.9552C21.7919 32.7605 21.9496 32.6058 22.0521 32.491C22.1623 32.3781 22.2503 32.2721 22.3159 32.1729C22.3894 32.0757 22.4715 31.96 22.5622 31.8258C22.6317 31.7111 22.6916 31.6188 22.7418 31.5488C22.7998 31.4807 22.8482 31.4349 22.8869 31.4115C23.003 31.3083 23.1281 31.2856 23.2622 31.3434C23.4059 31.3954 23.5167 31.4639 23.5946 31.549C23.6648 31.6652 23.6876 31.8068 23.6628 31.9738C23.6478 32.1348 23.5707 32.2971 23.4315 32.4605C23.3387 32.5695 23.2402 32.7017 23.1359 32.8572C23.0394 33.0147 22.9506 33.1741 22.8696 33.3354C22.7964 33.4986 22.7444 33.6423 22.7138 33.7666C22.6754 33.922 22.6719 34.0199 22.703 34.0606C22.7439 34.0954 22.7954 34.1205 22.8575 34.1358C22.9507 34.1588 23.0477 34.1498 23.1485 34.1087C23.2512 34.0599 23.4051 33.9701 23.6104 33.8395C23.6976 33.7869 23.8089 33.7031 23.9443 33.5882C24.0798 33.4733 24.2133 33.3497 24.3448 33.2173C24.4841 33.0869 24.5992 32.9711 24.6901 32.8699C24.7907 32.7629 24.8448 32.6938 24.8524 32.6628C24.8639 32.6162 24.9152 32.5588 25.0062 32.4906C25.0681 32.4399 25.1145 32.402 25.1455 32.3766C25.1862 32.3455 25.2501 32.32 25.3374 32.3004C25.4072 32.2846 25.478 32.298 25.5499 32.3405C25.6238 32.3752 25.6802 32.4303 25.7193 32.5058C25.7504 32.5465 25.7585 32.6309 25.7433 32.759C25.7379 32.8812 25.7237 32.9889 25.7007 33.0822C25.6563 33.1618 25.5916 33.2736 25.5067 33.4175C25.4237 33.5535 25.3378 33.6848 25.2489 33.8112C25.1697 33.9317 25.105 34.0105 25.0546 34.0475C25.0159 34.0709 24.9472 34.1157 24.8484 34.182C24.7516 34.2405 24.6606 34.3087 24.5755 34.3866C24.3238 34.5717 24.1466 34.6887 24.0439 34.7375C23.9412 34.7863 23.8512 34.8341 23.7737 34.8809C23.5704 35.0038 23.3514 35.0899 23.1167 35.1391C22.884 35.1806 22.6726 35.1861 22.4823 35.1556C22.294 35.1174 22.155 35.046 22.0655 34.9415C21.8553 34.7578 21.7867 34.5184 21.8595 34.2233C21.8748 34.1611 21.8766 34.1039 21.8648 34.0515C21.8627 33.9933 21.8616 33.9642 21.8616 33.9642C21.8306 33.9566 21.7859 33.9538 21.7277 33.9559C21.6773 33.96 21.6134 34.0019 21.536 34.0817C21.4335 34.1965 21.2796 34.3027 21.0742 34.4003C20.8786 34.4921 20.6838 34.5636 20.4899 34.6146C20.2979 34.6579 20.1554 34.668 20.0622 34.645ZM28.5257 37.0916C28.4073 37.0706 28.2976 37.0477 28.1966 37.0227C28.1034 36.9998 28.0335 36.966 27.9868 36.9215C27.8757 36.7705 27.8055 36.6543 27.7762 36.5729C27.7546 36.4934 27.7543 36.411 27.7754 36.3255C27.81 36.2187 27.8407 36.1109 27.8675 36.0022C27.8963 35.8857 27.9183 35.7964 27.9336 35.7342C27.9102 35.6955 27.8395 35.7151 27.7214 35.7931C27.6032 35.8711 27.4705 35.9413 27.3233 36.0039C27.0154 36.2163 26.753 36.3617 26.5359 36.44C26.3207 36.5105 26.1336 36.5343 25.9744 36.5116C25.8133 36.4965 25.657 36.4621 25.5055 36.4082C25.3695 36.3582 25.2625 36.2576 25.1844 36.1065C25.1141 35.9574 25.0738 35.7867 25.0635 35.5947C25.061 35.4045 25.0886 35.2259 25.1463 35.0589C25.2637 34.75 25.4045 34.4799 25.5687 34.2485C25.7348 34.0093 25.9543 33.771 26.2271 33.5334C26.351 33.4321 26.5088 33.3269 26.7006 33.2176C26.9001 33.1103 27.1084 33.0175 27.3254 32.9392C27.5444 32.8531 27.7344 32.8011 27.8954 32.7832C28.1456 32.7378 28.3435 32.7372 28.4891 32.7813C28.6426 32.8274 28.7883 32.8881 28.9263 32.9633C29.0216 33.0445 29.1003 33.0928 29.1625 33.1081C29.2324 33.1254 29.2924 33.099 29.3427 33.029C29.4046 32.9783 29.4587 32.9093 29.505 32.8218C29.5513 32.7344 29.6122 32.6546 29.6876 32.5826L30.1308 31.8886C30.2679 31.6999 30.4283 31.4841 30.6119 31.241C30.7955 30.9979 31.0023 30.7275 31.2322 30.4299C31.4856 30.1711 31.6763 30.0492 31.8045 30.0644C31.9403 30.0814 32.059 30.1848 32.1605 30.3747C32.2307 30.4909 32.2524 30.6198 32.2257 30.7616C32.2087 30.8974 32.1354 31.0442 32.0059 31.2017C31.9304 31.2738 31.8454 31.3681 31.7506 31.4848C31.6578 31.5938 31.5476 31.7231 31.42 31.8729C31.2848 32.0538 31.1456 32.2337 31.0026 32.4127C30.8674 32.5935 30.7234 32.7929 30.5708 33.0106C30.5091 33.1272 30.4309 33.2604 30.3363 33.4101C30.2494 33.5617 30.1742 33.6997 30.1106 33.8241C30.0566 33.9426 30.0007 34.0524 29.9428 34.1535C29.8946 34.2487 29.8549 34.2925 29.8238 34.2848C29.7483 34.3238 29.6613 34.426 29.5629 34.5912C29.4663 34.7487 29.3747 34.9197 29.288 35.1043C29.209 35.2908 29.1425 35.4433 29.0885 35.5619C29.05 35.6512 29.0058 35.7804 28.9559 35.9494C28.9079 36.1105 28.8647 36.2688 28.8264 36.4242C28.79 36.5717 28.765 36.6727 28.7516 36.7271C28.7152 36.8747 28.6777 36.9766 28.6391 37.033C28.6101 37.0836 28.5723 37.1031 28.5257 37.0916ZM26.1198 35.5216C26.2984 35.5656 26.4836 35.533 26.6754 35.4238C26.8768 35.3087 27.0957 35.1897 27.332 35.0667C27.4773 34.9789 27.6293 34.8805 27.788 34.7713C27.9487 34.6544 28.0968 34.5385 28.2323 34.4236C28.3755 34.3106 28.4906 34.2113 28.5777 34.1257C28.6647 34.04 28.7121 33.9817 28.7198 33.9506C28.7293 33.9118 28.7069 33.8692 28.6524 33.8228C28.6057 33.7783 28.5454 33.7387 28.4716 33.704C28.3997 33.6615 28.3307 33.6404 28.2648 33.6406C28.0649 33.649 27.8934 33.6932 27.75 33.7732C27.6145 33.8551 27.4131 33.9867 27.1459 34.1679C26.8729 34.3725 26.6456 34.576 26.4638 34.7783C26.2821 34.9807 26.1574 35.1518 26.09 35.2917C26.0322 35.4258 26.0421 35.5024 26.1198 35.5216ZM29.835 40.3686C29.802 40.3687 29.7583 40.3456 29.7038 40.2992C29.6571 40.2547 29.6239 40.1888 29.6043 40.1016C29.5846 40.0143 29.5979 39.9105 29.6441 39.79C29.6398 39.6736 29.6772 39.5386 29.7563 39.3851C29.8412 39.2413 29.9958 39.0322 30.22 38.7579C30.3284 38.6528 30.4347 38.5225 30.539 38.3669C30.651 38.2133 30.7709 38.0616 30.8985 37.9118C30.9545 37.8515 31.0503 37.7474 31.1856 37.5995C31.3288 37.4535 31.4873 37.2784 31.6613 37.0742C31.845 36.864 32.0189 36.6433 32.1832 36.4119C31.9295 36.5718 31.7058 36.7267 31.5123 36.8767C31.3284 37.0209 31.1648 37.1329 31.0215 37.2129C30.8878 37.2871 30.7598 37.3049 30.6374 37.2665C30.5422 37.2183 30.4381 37.1226 30.3251 36.9793C30.2122 36.8361 30.1525 36.6937 30.1463 36.552C30.1574 36.3735 30.1994 36.1532 30.2723 35.891C30.353 35.6307 30.5022 35.2432 30.7198 34.7283C30.8471 34.4796 30.9241 34.2843 30.9508 34.1426C30.9873 33.9951 30.9947 33.8815 30.9731 33.802C30.9515 33.7225 30.9163 33.648 30.8676 33.5783C30.7896 33.4601 30.8068 33.3573 30.919 33.2696C31.0313 33.1819 31.1485 33.1243 31.2707 33.0968C31.4434 33.0982 31.5734 33.122 31.6609 33.1683C31.758 33.2088 31.8427 33.2997 31.9149 33.4411C31.9522 33.5574 31.9875 33.6815 32.0209 33.8133C32.0543 33.9452 32.0441 34.1198 31.9905 34.3373C31.9675 34.4305 31.9377 34.5344 31.9012 34.649C31.8666 34.7558 31.8339 34.8549 31.8032 34.9462C31.7724 35.0375 31.7464 35.1093 31.7253 35.1618C31.5767 35.43 31.4455 35.6613 31.3316 35.8557C31.2177 36.0501 31.1802 36.1521 31.219 36.1616C31.405 36.0757 31.5668 35.9879 31.7043 35.8982C31.8495 35.8104 32.0083 35.7013 32.1806 35.5708C32.3528 35.4402 32.5686 35.2669 32.828 35.0507C32.9305 34.9359 33.032 34.825 33.1325 34.718C33.2331 34.6109 33.323 34.4972 33.4022 34.3766C33.4737 34.2871 33.5617 34.1976 33.6662 34.108C33.7726 34.0107 33.8423 33.962 33.8753 33.9619C33.9179 33.9559 33.9714 33.9732 34.0355 34.0138C34.0997 34.0543 34.159 34.0978 34.2135 34.1442C34.2776 34.1847 34.3078 34.2128 34.3039 34.2283C34.3098 34.238 34.3467 34.2553 34.4147 34.2803C34.4827 34.3054 34.5507 34.3304 34.6187 34.3554C34.6886 34.3726 34.7206 34.3929 34.7149 34.4162C34.7111 34.4317 34.6734 34.4842 34.6019 34.5737C34.5381 34.6651 34.4637 34.7662 34.3787 34.8771C34.2937 34.988 34.2154 35.0881 34.1439 35.1776C34.0821 35.2612 34.0531 35.3118 34.057 35.3292C34.0687 35.3486 34.0427 35.404 33.979 35.4953C33.9171 35.579 33.8447 35.6723 33.7616 35.7754C33.6862 35.8804 33.6176 35.9747 33.5558 36.0584C33.4149 36.2955 33.2623 36.5298 33.0981 36.7612C32.9358 36.9848 32.7541 37.2037 32.553 37.4177C32.4834 37.4994 32.378 37.6259 32.2369 37.7971C32.1036 37.9702 31.9712 38.1394 31.8398 38.3047C31.7142 38.4797 31.6156 38.612 31.5441 38.7015C31.4977 38.7559 31.4272 38.8415 31.3324 38.9582C31.2436 39.0846 31.1441 39.2207 31.0339 39.3666C30.9316 39.5144 30.8321 39.6505 30.7354 39.775C30.6369 39.9072 30.5625 40.0084 30.5123 40.0784C30.4603 40.2221 30.3985 40.3222 30.3269 40.3787C30.2398 40.4314 30.1341 40.4424 30.0098 40.4117C29.8933 40.383 29.835 40.3686 29.835 40.3686ZM35.4537 36.8232C35.2266 36.8084 35.0778 36.6769 35.0072 36.4288C34.9385 36.1729 35.043 35.7826 35.3208 35.2578C35.3904 35.1761 35.4512 35.0964 35.5034 35.0186C35.5575 34.9331 35.5912 34.8631 35.6046 34.8088C35.6606 34.7155 35.7282 34.6085 35.8073 34.488C35.8962 34.3616 35.9822 34.2468 36.0653 34.1438C36.1503 34.0329 36.2093 33.9609 36.2422 33.9278C36.2732 33.9355 36.311 33.916 36.3555 33.8693C36.4078 33.8245 36.4406 33.7749 36.454 33.7205C36.4693 33.6584 36.4982 33.5914 36.5407 33.5194C36.5909 33.4494 36.6354 33.4027 36.6741 33.3793C36.6837 33.3405 36.7098 33.3016 36.7524 33.2627C36.7949 33.2237 36.82 33.1887 36.8277 33.1577C36.8354 33.1266 36.8498 33.1013 36.8711 33.0819C36.9002 33.0643 36.9185 33.04 36.9262 33.0089C37.0268 32.9019 37.1611 32.7414 37.3293 32.5275C37.5071 32.3077 37.6839 32.0752 37.8597 31.8302C38.0433 31.5871 38.1998 31.3703 38.3292 31.1797C38.4586 30.9892 38.5291 30.8706 38.5406 30.824C38.5714 30.7657 38.6091 30.7132 38.6536 30.6665C38.6981 30.6198 38.7495 30.6119 38.8078 30.6427C38.8446 30.6271 38.8941 30.627 38.9562 30.6423C39.0202 30.6498 39.0678 30.6575 39.0989 30.6651C39.0989 30.6651 39.13 30.6893 39.1922 30.7376C39.2545 30.7859 39.3051 30.8478 39.3442 30.9234C39.3929 30.9931 39.4096 31.0755 39.3944 31.1706C39.3792 31.2658 39.3601 31.3599 39.3371 31.4531C39.2929 31.5988 39.1973 31.7524 39.0504 31.9139C38.9034 32.0754 38.74 32.2534 38.5601 32.448C38.4461 32.5764 38.3339 32.697 38.2236 32.8099C38.1212 32.9247 38.0661 32.9976 38.0584 33.0287C38.0508 33.0598 38.0237 33.1026 37.9773 33.157C37.9309 33.2115 37.8768 33.2805 37.815 33.3642C37.7492 33.4303 37.6796 33.512 37.6062 33.6093C37.5405 33.7084 37.4807 33.8008 37.4266 33.8863C37.3745 33.9641 37.3455 34.0146 37.3398 34.0379C37.3243 34.0671 37.305 34.0953 37.2818 34.1225C37.2664 34.1517 37.2393 34.178 37.2006 34.2014C37.1695 34.1937 37.1443 34.2122 37.1251 34.2569C37.1155 34.2957 37.1107 34.3151 37.1107 34.3151C37.103 34.3462 37.0654 34.4152 36.9978 34.5221C36.9399 34.6232 36.853 34.7418 36.737 34.878C36.4878 35.2533 36.3015 35.5575 36.1781 35.7907C36.0565 36.0162 35.9669 36.2124 35.9092 36.3795C35.8477 36.562 35.7734 36.6796 35.6862 36.7323C35.601 36.7772 35.5235 36.8075 35.4537 36.8232ZM34.3907 38.4768C34.2122 38.4987 34.0696 38.4923 33.9628 38.4577C33.854 38.4309 33.7461 38.3507 33.639 38.2171C33.5219 38.0235 33.5059 37.8547 33.5908 37.7109C33.6854 37.5612 33.8636 37.4403 34.1252 37.3483C34.3055 37.2857 34.4306 37.263 34.5005 37.2802C34.58 37.2916 34.686 37.3466 34.8182 37.4451C35.042 37.6734 35.1135 37.8847 35.0326 38.079C34.9537 38.2655 34.7397 38.3981 34.3907 38.4768Z" fill="#FF6421"/>
<g clip-path="url(#clip1_108_634)">
<path fill-rule="evenodd" clip-rule="evenodd" d="M103.38 27.5794C102.398 28.1606 100.925 28.6772 98.8008 28.8748C96.2027 29.1165 94.718 29.5042 93.4309 30.8055C92.1354 32.1154 91.0179 34.3697 89.3004 38.4433C89.3139 38.4476 89.3287 38.4521 89.3449 38.4567C89.5472 38.5138 89.8969 38.5673 90.4525 38.5917C91.5593 38.6403 93.4243 38.5713 96.4305 38.2319C99.2947 37.9085 101.23 35.8203 102.491 33.2551C103.528 31.1443 104.086 28.7523 104.317 26.8816C104.071 27.116 103.761 27.3536 103.38 27.5794ZM89.1789 38.3908C89.1789 38.3908 89.1793 38.3911 89.1801 38.3918C89.1792 38.3911 89.1789 38.3908 89.1789 38.3908ZM103.07 27.0568C103.968 26.5253 104.344 25.9754 104.436 25.6869L105.028 25.7969C104.905 27.8097 104.34 30.8701 103.036 33.523C101.733 36.1732 99.6598 38.4786 96.4986 38.8355C93.4795 39.1763 91.5786 39.2491 90.4259 39.1985C89.8518 39.1733 89.4483 39.117 89.1799 39.0412C89.0474 39.0038 88.9288 38.9566 88.8365 38.8927C88.7501 38.8329 88.6292 38.716 88.6292 38.5337V38.4725L88.6529 38.416C90.4084 34.2391 91.5832 31.81 92.9991 30.3784C94.4453 28.9161 96.119 28.5142 98.7445 28.27C100.799 28.0789 102.181 27.5831 103.07 27.0568Z" fill="#2F3D36"/>
<path fill-rule="evenodd" clip-rule="evenodd" d="M89.0743 39.2052L89.1426 38.6056C89.473 38.6056 89.7593 38.6683 89.9972 38.7997C95.0518 40.0291 97.9709 41.3823 99.7879 42.9461C101.71 44.6 102.368 46.4651 103.037 48.5342C104.101 51.8214 105.251 54.166 105.684 54.9139L106 55.4604L105.376 55.3664C103.479 55.0809 100.492 54.464 97.6817 53.5384C96.2764 53.0756 94.9084 52.5333 93.7405 51.9131C92.5772 51.2954 91.589 50.5881 90.9676 49.7854C90.1881 48.7786 89.8894 47.5727 89.8132 46.3595C89.7372 45.1491 89.8816 43.9036 90.0102 42.8068C90.1415 41.6865 90.2501 40.7554 90.1395 40.1007C90.0855 39.781 89.9849 39.5682 89.844 39.4342C89.8193 39.4107 89.7921 39.3884 89.762 39.3676C89.5372 39.3133 89.308 39.2592 89.0743 39.2052ZM90.633 39.5848C90.6801 39.7166 90.7142 39.8559 90.7384 39.9995C90.864 40.7428 90.7461 41.7474 90.6224 42.801C90.6194 42.8265 90.6164 42.852 90.6134 42.8776C90.4839 43.9826 90.3474 45.1743 90.4194 46.3214C90.4913 47.4656 90.7695 48.5374 91.4479 49.4136C91.9926 50.1172 92.8935 50.7756 94.0254 51.3767C95.1527 51.9753 96.486 52.5051 97.8717 52.9615C100.361 53.7812 102.996 54.3567 104.862 54.6694C104.3 53.5759 103.348 51.469 102.459 48.7211C101.792 46.6599 101.175 44.9413 99.3917 43.4065C97.7729 42.0132 95.1685 40.7518 90.633 39.5848Z" fill="#2F3D36"/>
<path fill-rule="evenodd" clip-rule="evenodd" d="M89.0743 39.2052L89.1426 38.6056C89.473 38.6056 89.7593 38.6683 89.9972 38.7997C95.0518 40.0291 97.9709 41.3823 99.7879 42.9461C101.71 44.6 102.368 46.4651 103.037 48.5342C104.101 51.8214 105.251 54.166 105.684 54.9139L106 55.4604L105.376 55.3664C103.479 55.0809 100.492 54.464 97.6817 53.5384C96.2764 53.0756 94.9084 52.5333 93.7405 51.9131C92.5772 51.2954 91.589 50.5881 90.9676 49.7854C90.1881 48.7786 89.8894 47.5727 89.8132 46.3595C89.7372 45.1491 89.8816 43.9036 90.0102 42.8068C90.1415 41.6865 90.2501 40.7554 90.1395 40.1007C90.0855 39.781 89.9849 39.5682 89.844 39.4342C89.8193 39.4107 89.7921 39.3884 89.762 39.3676C89.5372 39.3133 89.308 39.2592 89.0743 39.2052Z" fill="#2F3D36"/>
<path fill-rule="evenodd" clip-rule="evenodd" d="M89.1789 38.3908C89.1789 38.3908 89.1793 38.3911 89.1801 38.3918C89.1792 38.3911 89.1789 38.3908 89.1789 38.3908ZM103.07 27.0568C103.968 26.5253 104.344 25.9754 104.436 25.6869L105.028 25.7969C104.905 27.8097 104.34 30.8701 103.036 33.523C101.733 36.1732 99.6598 38.4786 96.4986 38.8355C93.4795 39.1763 91.5786 39.2491 90.4259 39.1985C89.8518 39.1733 89.4483 39.117 89.1799 39.0412C89.0474 39.0038 88.9288 38.9566 88.8365 38.8927C88.7501 38.8329 88.6292 38.716 88.6292 38.5337V38.4725L88.6529 38.416C90.4084 34.2391 91.5832 31.81 92.9991 30.3784C94.4453 28.9161 96.119 28.5142 98.7445 28.27C100.799 28.0789 102.181 27.5831 103.07 27.0568Z" fill="#2F3D36"/>
<path fill-rule="evenodd" clip-rule="evenodd" d="M75.7591 7.97876C76.8785 2.75465 80.3899 0.814377 82.7374 0.814377C83.4068 0.814377 84.0276 1.21945 84.5682 1.76395C85.1161 2.31583 85.6284 3.05812 86.0822 3.83484C86.9908 5.39031 87.6964 7.13996 88.0015 7.93337C88.3246 8.77338 88.477 10.1245 88.5528 11.5338C88.6291 12.9541 88.6291 14.4792 88.6291 15.6921V15.6956C88.6291 16.4713 88.5552 17.4403 88.4782 18.4487C88.4337 19.0317 88.3881 19.6279 88.3553 20.2075C88.31 21.0082 88.2879 21.7857 88.3213 22.48C88.3549 23.1782 88.4439 23.7717 88.6098 24.214L88.6605 24.349C89.0127 25.2878 89.4177 26.3674 89.7396 27.4207C90.0754 28.5196 90.3299 29.6184 90.3299 30.5161V30.5189C90.3299 31.3685 90.3299 32.683 90.238 33.9844C90.147 35.274 89.9633 36.6007 89.573 37.4462C89.2491 38.148 89.2654 39.0422 89.458 39.9756C89.6493 40.9025 90.0042 41.8218 90.3065 42.5472C90.4853 42.9763 90.5275 43.5637 90.4907 44.1982C90.4533 44.8417 90.3319 45.5702 90.1543 46.3039C89.8005 47.7653 89.2126 49.291 88.5781 50.2427C88.4227 50.4759 88.1683 50.6883 87.8674 50.883C87.5617 51.0808 87.1847 51.275 86.7595 51.464C85.9088 51.8423 84.8397 52.2109 83.7055 52.5517C81.4357 53.2337 78.8743 53.8129 77.2075 54.1382L77.2063 54.1384L77.2051 54.1386C74.1699 54.7052 67.4588 55.9372 64.9261 56.3269C64.2232 56.435 63.4218 56.284 62.6076 55.9948C61.7888 55.7039 60.9299 55.2634 60.1006 54.7621C58.4594 53.7701 56.9042 52.5219 55.9586 51.6621C55.1958 51.2678 54.0114 50.5762 52.8783 49.7519C51.7362 48.921 50.608 47.9282 50.0396 46.9465C49.3629 45.7776 48.902 44.7631 48.5053 43.8477C48.4364 43.6887 48.3696 43.5331 48.3041 43.3806C47.9909 42.6511 47.7076 41.9911 47.3625 41.3502C47.112 40.885 47.0375 40.2509 47.0491 39.5762C47.0609 38.8923 47.1627 38.1225 47.3006 37.3562C47.4388 36.5886 47.615 35.8152 47.7785 35.1232C47.8163 34.9631 47.8534 34.8077 47.8891 34.658C48.0087 34.1563 48.1133 33.7176 48.1824 33.372C48.2675 32.9467 48.235 32.7148 48.1705 32.57C48.1066 32.4264 47.9899 32.3183 47.7823 32.1823C47.7216 32.1425 47.6549 32.1017 47.5837 32.0582C47.1707 31.8056 46.6042 31.4591 46.1514 30.6667C45.6139 29.7261 45.6264 28.6075 45.7489 27.521C45.7899 27.1566 45.8453 26.7826 45.8998 26.415C45.9266 26.2341 45.9531 26.0548 45.9776 25.8788C46.0531 25.3373 46.1114 24.8152 46.1114 24.3206C46.1114 23.9569 45.9974 23.4307 45.7937 22.7958C45.5924 22.1679 45.312 21.4592 44.9979 20.7401C44.3699 19.3022 43.6152 17.8411 43.1126 16.9364L43.1094 16.9306L43.1065 16.9247C42.513 15.7377 41.7921 13.936 41.58 12.4026C41.4747 11.6409 41.4878 10.8986 41.7475 10.3267C41.8801 10.0346 42.0783 9.78451 42.3566 9.60568C42.6338 9.42752 42.9721 9.33174 43.3676 9.3181C43.8662 9.30091 44.4376 9.43775 45.0423 9.66837C45.6509 9.90046 46.3146 10.2359 47.0042 10.6364C48.3833 11.4374 49.8907 12.513 51.3059 13.5858C52.2985 14.3383 53.252 15.0942 54.0862 15.7556C54.4409 16.0368 54.774 16.3009 55.0795 16.5404C55.5938 16.9437 56.0273 17.2755 56.3571 17.5058C56.5225 17.6213 56.6557 17.7069 56.7563 17.7625C56.8067 17.7903 56.8434 17.8076 56.8681 17.8171C56.8732 17.819 56.8772 17.8205 56.8802 17.8215H58.6253C59.1851 17.5958 60.0777 17.2709 61.014 16.9984C61.9596 16.7232 62.9804 16.4923 63.7514 16.4854C65.3462 16.119 69.0098 15.3919 71.0754 15.3919C72.2201 15.3919 73.1049 14.8328 73.8541 13.6224C74.6146 12.3941 75.2136 10.5246 75.7591 7.97876ZM82.7374 1.42177C80.7117 1.42177 77.4202 3.12588 76.353 8.10603C75.8052 10.6624 75.1894 12.6195 74.3706 13.9421C73.5406 15.2829 72.4818 15.9993 71.0754 15.9993C69.0737 15.9993 65.4368 16.7198 63.8549 17.0848L63.8212 17.0926H63.7866C63.1039 17.0926 62.137 17.3042 61.1838 17.5816C60.2383 17.8567 59.3372 18.1872 58.7991 18.4064L58.744 18.4289H56.8623C56.7801 18.4289 56.7041 18.4049 56.6495 18.3838C56.5897 18.3607 56.5265 18.3295 56.4626 18.2942C56.3346 18.2235 56.1814 18.1239 56.0094 18.0038C55.6644 17.7629 55.2191 17.4218 54.7047 17.0184C54.3948 16.7754 54.059 16.5092 53.7027 16.2267C52.8703 15.5668 51.9261 14.8182 50.9389 14.0699C49.5297 13.0016 48.0457 11.9438 46.6991 11.1617C46.0259 10.7707 45.3931 10.4522 44.8259 10.2359C44.2547 10.0181 43.7708 9.91196 43.3886 9.92514C43.0795 9.9358 42.8527 10.0088 42.685 10.1166C42.5183 10.2238 42.3917 10.3769 42.3005 10.5778C42.1125 10.9919 42.0815 11.595 42.1817 12.3194C42.3803 13.7557 43.0666 15.4857 43.6468 16.6472C44.1565 17.5652 44.9185 19.0407 45.5545 20.497C45.8732 21.2266 46.1622 21.9558 46.3721 22.6103C46.5797 23.2577 46.7188 23.8583 46.7188 24.3206C46.7188 24.8587 46.6556 25.4147 46.5792 25.9627C46.5531 26.15 46.5257 26.335 46.4985 26.5185C46.445 26.8796 46.3924 27.2347 46.3524 27.589C46.2319 28.6588 46.2445 29.6053 46.6788 30.3654C47.0494 31.0141 47.4812 31.2804 47.8874 31.5309C47.9645 31.5784 48.0406 31.6253 48.1152 31.6742C48.348 31.8268 48.5881 32.0147 48.7254 32.3229C48.8621 32.6298 48.8752 33.0053 48.778 33.4911C48.7065 33.8487 48.5982 34.303 48.4779 34.8075C48.4426 34.9554 48.4063 35.1075 48.3696 35.2628C48.2066 35.9527 48.0336 36.713 47.8984 37.4638C47.763 38.216 47.6674 38.9495 47.6564 39.5867C47.6453 40.2331 47.7226 40.7379 47.8973 41.0623C48.2563 41.729 48.5521 42.4183 48.8656 43.1486C48.9303 43.2993 48.9957 43.4518 49.0626 43.6062C49.4555 44.5129 49.9057 45.5029 50.5653 46.6421C51.0659 47.5069 52.104 48.4375 53.2356 49.2607C54.3582 50.0774 55.5351 50.7619 56.2722 51.1403L56.3083 51.1589L56.3382 51.1862C57.2584 52.0264 58.7975 53.2647 60.4148 54.2422C61.2233 54.731 62.0439 55.1499 62.8109 55.4224C63.5825 55.6965 64.2733 55.8128 64.8338 55.7266C67.3543 55.3388 74.0528 54.1092 77.0922 53.5418C78.7459 53.2191 81.2861 52.6444 83.5307 51.97C84.654 51.6325 85.6956 51.2723 86.5127 50.909C86.9214 50.7273 87.2676 50.5476 87.5374 50.373C87.812 50.1954 87.9852 50.037 88.0728 49.9058C88.6531 49.0353 89.2193 47.5847 89.564 46.161C89.7356 45.4522 89.8496 44.7608 89.8843 44.163C89.9196 43.5561 89.8707 43.0806 89.7458 42.7808C89.4407 42.0485 89.0667 41.0848 88.8632 40.0984C88.661 39.1185 88.6166 38.069 89.0215 37.1916C89.3602 36.4579 89.5409 35.2335 89.6321 33.9417C89.7224 32.6631 89.7225 31.3673 89.7225 30.5161C89.7225 29.713 89.491 28.6859 89.1587 27.5982C88.8425 26.5636 88.4435 25.4999 88.0898 24.5572L88.0411 24.4273C87.8425 23.8977 87.7493 23.2308 87.7146 22.5092C87.6797 21.7838 87.7031 20.982 87.7489 20.1732C87.7835 19.5623 87.8302 18.9517 87.8753 18.3636C87.9509 17.3757 88.0217 16.4512 88.0217 15.6956C88.0217 14.4794 88.0217 12.9691 87.9463 11.5664C87.8702 10.1513 87.7189 8.89064 87.4346 8.15142C87.1324 7.3656 86.4409 5.65309 85.5577 4.14121C85.1155 3.38425 84.6332 2.69157 84.1372 2.19189C83.6338 1.68483 83.1613 1.42177 82.7374 1.42177Z" fill="#FF6421"/>
<path fill-rule="evenodd" clip-rule="evenodd" d="M75.7591 7.97876C76.8785 2.75465 80.3899 0.814377 82.7374 0.814377C83.4068 0.814377 84.0276 1.21945 84.5682 1.76395C85.1161 2.31583 85.6284 3.05812 86.0822 3.83484C86.9908 5.39031 87.6964 7.13996 88.0015 7.93337C88.3246 8.77338 88.477 10.1245 88.5528 11.5338C88.6291 12.9541 88.6291 14.4792 88.6291 15.6921V15.6956C88.6291 16.4713 88.5552 17.4403 88.4782 18.4487C88.4337 19.0317 88.3881 19.6279 88.3553 20.2075C88.31 21.0082 88.2879 21.7857 88.3213 22.48C88.3549 23.1782 88.4439 23.7717 88.6098 24.214L88.6605 24.349C89.0127 25.2878 89.4177 26.3674 89.7396 27.4207C90.0754 28.5196 90.3299 29.6184 90.3299 30.5161V30.5189C90.3299 31.3685 90.3299 32.683 90.238 33.9844C90.147 35.274 89.9633 36.6007 89.573 37.4462C89.2491 38.148 89.2654 39.0422 89.458 39.9756C89.6493 40.9025 90.0042 41.8218 90.3065 42.5472C90.4853 42.9763 90.5275 43.5637 90.4907 44.1982C90.4533 44.8417 90.3319 45.5702 90.1543 46.3039C89.8005 47.7653 89.2126 49.291 88.5781 50.2427C88.4227 50.4759 88.1683 50.6883 87.8674 50.883C87.5617 51.0808 87.1847 51.275 86.7595 51.464C85.9088 51.8423 84.8397 52.2109 83.7055 52.5517C81.4357 53.2337 78.8743 53.8129 77.2075 54.1382L77.2063 54.1384L77.2051 54.1386C74.1699 54.7052 67.4588 55.9372 64.9261 56.3269C64.2232 56.435 63.4218 56.284 62.6076 55.9948C61.7888 55.7039 60.9299 55.2634 60.1006 54.7621C58.4594 53.7701 56.9042 52.5219 55.9586 51.6621C55.1958 51.2678 54.0114 50.5762 52.8783 49.7519C51.7362 48.921 50.608 47.9282 50.0396 46.9465C49.3629 45.7776 48.902 44.7631 48.5053 43.8477C48.4364 43.6887 48.3696 43.5331 48.3041 43.3806C47.9909 42.6511 47.7076 41.9911 47.3625 41.3502C47.112 40.885 47.0375 40.2509 47.0491 39.5762C47.0609 38.8923 47.1627 38.1225 47.3006 37.3562C47.4388 36.5886 47.615 35.8152 47.7785 35.1232C47.8163 34.9631 47.8534 34.8077 47.8891 34.658C48.0087 34.1563 48.1133 33.7176 48.1824 33.372C48.2675 32.9467 48.235 32.7148 48.1705 32.57C48.1066 32.4264 47.9899 32.3183 47.7823 32.1823C47.7216 32.1425 47.6549 32.1017 47.5837 32.0582C47.1707 31.8056 46.6042 31.4591 46.1514 30.6667C45.6139 29.7261 45.6264 28.6075 45.7489 27.521C45.7899 27.1566 45.8453 26.7826 45.8998 26.415C45.9266 26.2341 45.9531 26.0548 45.9776 25.8788C46.0531 25.3373 46.1114 24.8152 46.1114 24.3206C46.1114 23.9569 45.9974 23.4307 45.7937 22.7958C45.5924 22.1679 45.312 21.4592 44.9979 20.7401C44.3699 19.3022 43.6152 17.8411 43.1126 16.9364L43.1094 16.9306L43.1065 16.9247C42.513 15.7377 41.7921 13.936 41.58 12.4026C41.4747 11.6409 41.4878 10.8986 41.7475 10.3267C41.8801 10.0346 42.0783 9.78451 42.3566 9.60568C42.6338 9.42752 42.9721 9.33174 43.3676 9.3181C43.8662 9.30091 44.4376 9.43775 45.0423 9.66837C45.6509 9.90046 46.3146 10.2359 47.0042 10.6364C48.3833 11.4374 49.8907 12.513 51.3059 13.5858C52.2985 14.3383 53.252 15.0942 54.0862 15.7556C54.4409 16.0368 54.774 16.3009 55.0795 16.5404C55.5938 16.9437 56.0273 17.2755 56.3571 17.5058C56.5225 17.6213 56.6557 17.7069 56.7563 17.7625C56.8067 17.7903 56.8434 17.8076 56.8681 17.8171C56.8732 17.819 56.8772 17.8205 56.8802 17.8215H58.6253C59.1851 17.5958 60.0777 17.2709 61.014 16.9984C61.9596 16.7232 62.9804 16.4923 63.7514 16.4854C65.3462 16.119 69.0098 15.3919 71.0754 15.3919C72.2201 15.3919 73.1049 14.8328 73.8541 13.6224C74.6146 12.3941 75.2136 10.5246 75.7591 7.97876Z" fill="#FF6421"/>
<path fill-rule="evenodd" clip-rule="evenodd" d="M48.5079 44.4205C48.5079 44.4205 48.5082 44.4205 48.5089 44.4207C48.5082 44.4206 48.5079 44.4205 48.5079 44.4205ZM49.6776 44.8632C50.0322 45.418 50.3729 46.094 50.5789 46.5472L50.631 46.6617L50.601 46.7417C50.6018 46.7449 50.6029 46.7484 50.6041 46.7524C50.6172 46.7943 50.6454 46.858 50.6951 46.9432C50.7935 47.112 50.9549 47.3293 51.1694 47.5684C51.598 48.0462 52.2107 48.5804 52.8815 48.9595C55.1269 50.2286 56.9144 51.698 58.0907 52.665C58.3917 52.9123 58.6526 53.1268 58.871 53.2967C58.9422 53.3521 59.0162 53.4105 59.0933 53.4715C60.1979 54.3444 61.9424 55.723 65.2444 55.723C66.6685 55.723 68.802 55.375 71.0323 54.9391C72.0922 54.7319 73.181 54.5034 74.2161 54.2861C75.3305 54.0521 76.3828 53.8313 77.2697 53.6642C78.8638 53.3008 81.4809 52.6302 83.8296 51.7985C85.006 51.3818 86.1061 50.9279 86.9739 50.4559C87.8581 49.975 88.4424 49.5057 88.6638 49.083L89.2301 49.2861C88.9983 50.3938 88.9052 51.2772 88.8277 52.0126C88.8151 52.1324 88.8029 52.2482 88.7906 52.3605C88.7042 53.1478 88.6098 53.8024 88.2818 54.3462C87.9451 54.9045 87.3902 55.3057 86.4844 55.6724C85.5824 56.0374 84.2928 56.3836 82.4409 56.8087C79.4102 57.5042 76.2575 58.1998 73.4825 58.8121C72.8636 58.9487 72.2634 59.0811 71.6876 59.2084C68.5202 59.9089 66.1081 60.452 65.3337 60.6903C64.8939 60.8256 64.171 60.8859 63.3068 60.9086C62.431 60.9316 61.3728 60.9162 60.2404 60.8858C59.5014 60.866 58.731 60.8398 57.9571 60.8134C56.3511 60.7588 54.7296 60.7037 53.3394 60.7037C52.5732 60.7037 51.6425 60.9592 50.6226 61.3966C49.6072 61.8321 48.5261 62.4379 47.4655 63.1158C45.3441 64.4718 43.3286 66.1011 42.1235 67.1856L41.6375 66.8493C42.3245 65.0915 43.3489 62.3333 44.189 59.7738C44.6091 58.4938 44.9818 57.2672 45.2431 56.2421C45.5079 55.2034 45.6476 54.4106 45.6259 53.9768C45.5937 53.3323 45.7057 52.3922 45.8923 51.3621C46.0801 50.3252 46.3479 49.1741 46.6382 48.0971C46.9282 47.0208 47.2424 46.0125 47.524 45.2621C47.6643 44.8882 47.7997 44.5701 47.923 44.3375C47.9841 44.2222 48.0476 44.1178 48.1129 44.036C48.1457 43.995 48.1843 43.9529 48.2291 43.9169C48.2721 43.8824 48.3367 43.8408 48.4207 43.824C48.5794 43.7922 48.7229 43.8424 48.8291 43.9016C48.9372 43.9617 49.0382 44.0481 49.1298 44.1414C49.3136 44.3286 49.5014 44.5875 49.6776 44.8632ZM50.5969 46.7223C50.597 46.7223 50.5971 46.7233 50.5972 46.7252C50.5969 46.7232 50.5968 46.7223 50.5969 46.7223Z" fill="#2F3D36"/>
<path fill-rule="evenodd" clip-rule="evenodd" d="M77.043 8.86652C77.2873 8.26299 77.7626 7.53695 78.1207 7.056L78.4861 7.32808C78.1356 7.79871 77.6877 8.48792 77.4653 9.03743C77.4102 9.17343 77.3713 9.29524 77.3505 9.39903C77.3291 9.5051 77.3295 9.5782 77.3396 9.62365C77.3482 9.66211 77.3608 9.67222 77.3717 9.67864C77.3901 9.68954 77.4412 9.70829 77.5548 9.69841C78.2881 9.63464 79.1958 9.76204 80.0017 9.94624C80.8077 10.1305 81.541 10.3784 81.9282 10.572C82.2953 10.7555 82.5153 11.1236 82.6451 11.4645C82.777 11.811 82.8324 12.1724 82.8434 12.4048L82.8685 12.9309L82.468 12.5888C81.9964 12.186 81.2245 11.6714 80.4466 11.4289C79.667 11.186 78.9542 11.2328 78.4819 11.8283C77.9391 12.5127 77.7838 12.9967 77.778 13.3052C77.7736 13.54 77.8543 13.6787 77.9293 13.7505C78.5735 13.6139 79.5308 13.4903 80.4386 13.5397C80.9171 13.5657 81.392 13.6403 81.8033 13.7927C82.2146 13.9451 82.5781 14.1813 82.8078 14.5402C83.6181 15.8064 83.405 16.718 83.0875 17.0643L82.9501 17.2142L82.7857 17.0946C81.901 16.4512 80.5847 15.6273 79.5004 15.2291C78.95 15.027 78.5044 14.952 78.2127 15.0226C78.0764 15.0556 77.9823 15.1181 77.9184 15.2104C77.8519 15.3065 77.8023 15.4581 77.8023 15.6956C77.8023 16.7403 78.011 17.3105 78.2343 17.6048C78.4523 17.8922 78.687 17.9244 78.8074 17.9014L78.8531 17.8927L83.6363 18.9352L83.6285 19.3819L80.035 20.0352L80.9587 21.0051L80.6288 21.3192L79.1229 19.738L82.4255 19.1376L78.843 18.3568C78.5451 18.394 78.1681 18.2713 77.8714 17.8802C77.5632 17.474 77.3468 16.7889 77.3468 15.6956C77.3468 15.3986 77.4085 15.1468 77.5438 14.9512C77.6818 14.7518 77.88 14.6344 78.1056 14.5798C78.5377 14.4753 79.0944 14.5947 79.6575 14.8015C80.7168 15.1906 81.9594 15.9515 82.8498 16.5801C82.9576 16.2882 82.9996 15.6851 82.4241 14.7858C82.265 14.5373 81.9988 14.3509 81.6451 14.2199C81.2914 14.0888 80.8657 14.0191 80.4139 13.9945C79.5099 13.9454 78.5415 14.0786 77.9284 14.2171L77.8429 14.2364L77.7666 14.1934C77.5253 14.0577 77.314 13.7512 77.3225 13.2967C77.3309 12.8489 77.5501 12.27 78.1249 11.5452C78.7702 10.7316 79.7278 10.7278 80.5821 10.994C81.2102 11.1898 81.8219 11.5404 82.3007 11.882C82.2785 11.7975 82.2516 11.7113 82.2193 11.6266C82.1051 11.3267 81.9404 11.0874 81.7244 10.9794C81.3828 10.8086 80.6886 10.5705 79.9002 10.3903C79.1117 10.2101 78.2579 10.0945 77.5943 10.1522C77.4285 10.1667 77.2706 10.148 77.1402 10.071C77.0021 9.98953 76.9258 9.86136 76.8949 9.72248C76.8656 9.59058 76.8761 9.44726 76.9039 9.30919C76.9321 9.16883 76.9814 9.01877 77.043 8.86652Z" fill="#2F3D36"/>
<path fill-rule="evenodd" clip-rule="evenodd" d="M51.4821 15.4812C50.4246 14.6296 49.2088 13.7555 48.4124 13.2111L48.6695 12.835C49.4726 13.384 50.6985 14.2652 51.7679 15.1264C52.3022 15.5568 52.8011 15.9849 53.1893 16.3659C53.3834 16.5563 53.5527 16.7377 53.6858 16.9039C53.8164 17.0669 53.9231 17.2284 53.9783 17.3783C54.0326 17.5258 54.0516 17.7025 53.9435 17.8507C53.8429 17.9887 53.6797 18.0332 53.547 18.0474C53.276 18.0764 52.894 18.0035 52.4954 17.8938C52.3656 17.8581 52.2305 17.8174 52.0921 17.773C52.403 17.9867 52.7127 18.2065 53.0046 18.4238C53.4759 18.7746 53.9066 19.1228 54.2216 19.4299C54.3787 19.5831 54.5128 19.7315 54.6092 19.8694C54.6999 19.9992 54.7819 20.1536 54.7819 20.3118C54.7819 20.4722 54.7095 20.6026 54.5973 20.6948C54.4935 20.7801 54.3603 20.8298 54.2267 20.8606C53.9585 20.9224 53.6066 20.9256 53.2402 20.9004C53.1475 20.8941 53.0526 20.8858 52.9563 20.8758C53.2709 21.0396 53.5839 21.219 53.8758 21.4106C54.3208 21.7025 54.7279 22.0296 55.0165 22.3805C55.3037 22.7298 55.4944 23.1292 55.4488 23.5553C55.4263 23.7649 55.3517 23.9443 55.2133 24.0749C55.0761 24.2044 54.9008 24.2628 54.7206 24.2787C54.3715 24.3097 53.9399 24.1874 53.5088 24.0087C52.9874 23.7925 52.4168 23.4721 51.9002 23.1446C52.1385 23.552 52.3777 24.0117 52.5732 24.4805C52.7614 24.9317 52.9122 25.3985 52.9804 25.8398C53.0483 26.2788 53.0375 26.7121 52.881 27.0819L52.4615 26.9044C52.5722 26.6426 52.5913 26.3044 52.5302 25.9094C52.4695 25.5167 52.3326 25.0869 52.1528 24.6558C51.7931 23.7936 51.2745 22.9556 50.9076 22.45L51.2273 22.133C51.8792 22.6143 52.8582 23.2458 53.6832 23.5879C54.102 23.7614 54.4471 23.8457 54.6804 23.825C54.7915 23.8151 54.8588 23.7831 54.9006 23.7437C54.9412 23.7054 54.9818 23.6373 54.9958 23.5067C55.0231 23.2526 54.9136 22.9727 54.6647 22.6699C54.4171 22.3688 54.0521 22.071 53.626 21.7915C52.7749 21.2332 51.724 20.7758 51.0164 20.5267L51.1463 20.0906C51.7169 20.2307 52.5684 20.3976 53.2715 20.446C53.6264 20.4704 53.9236 20.463 54.1243 20.4167C54.2252 20.3935 54.2813 20.3648 54.3082 20.3428C54.3264 20.3278 54.3264 20.3217 54.3264 20.3122V20.3118C54.3264 20.3 54.3148 20.2433 54.2358 20.1304C54.1625 20.0255 54.0508 19.8996 53.9036 19.7561C53.6099 19.4698 53.1978 19.1355 52.7326 18.7893C51.8038 18.0979 50.6865 17.3761 49.9411 16.9228L50.1539 16.5209C50.8381 16.8328 51.8367 17.2401 52.6163 17.4546C53.0143 17.5641 53.3217 17.6134 53.4985 17.5944C53.5307 17.591 53.5516 17.586 53.5644 17.5819C53.5624 17.5713 53.5584 17.5562 53.5508 17.5358C53.521 17.4549 53.4506 17.3389 53.3303 17.1887C53.2125 17.0417 53.0569 16.8742 52.8703 16.6911C52.4971 16.325 52.0112 15.9073 51.4821 15.4812ZM53.5662 17.6029C53.5661 17.6029 53.5661 17.6019 53.5665 17.6001C53.5665 17.6021 53.5663 17.603 53.5662 17.6029Z" fill="#2F3D36"/>
<path fill-rule="evenodd" clip-rule="evenodd" d="M67.1883 52.1597L66.8895 52.9442H66.0176L66.2714 55.0477L64.9027 53.831L64.3525 54.4782L63.7229 53.6387L62.5566 55.1436V53.3322C62.51 53.3426 62.46 53.348 62.4085 53.3445C62.279 53.3358 62.1568 53.2715 62.0771 53.1435C62.0058 53.0289 61.9796 52.8813 61.9796 52.7164H62.4352C62.4352 52.8125 62.4478 52.8638 62.4568 52.8877C62.4695 52.8849 62.4886 52.8789 62.5143 52.8665C62.5569 52.846 62.6011 52.8159 62.6377 52.7851L63.0122 52.4698V53.8121L63.7288 52.8874L64.3748 53.7486L64.8572 53.1811L65.675 53.908L65.5037 52.4886H66.5755L66.7626 51.9976L67.1883 52.1597Z" fill="#2F3D36"/>
<path fill-rule="evenodd" clip-rule="evenodd" d="M74.3113 47.5701C73.5307 48.4288 72.2035 49.4746 70.1005 50.7547C68.3451 51.8232 66.7626 51.602 65.5137 50.8853C64.28 50.1773 63.3757 48.991 62.9167 48.1148L63.3203 47.9034C63.7522 48.7279 64.6032 49.8376 65.7404 50.4902C66.8624 51.134 68.2663 51.3379 69.8637 50.3656C71.9517 49.0946 73.2364 48.0753 73.9742 47.2637C74.7167 46.4469 74.8709 45.8801 74.7996 45.5L75.2474 45.416C75.3583 46.0078 75.0873 46.7165 74.3113 47.5701Z" fill="#2F3D36"/>
<path fill-rule="evenodd" clip-rule="evenodd" d="M55.1228 46.3723C55.2197 47.4975 55.5037 48.62 55.6835 49.2192C55.714 49.3209 55.794 49.4471 55.9382 49.5938C56.0802 49.7383 56.2718 49.8898 56.5035 50.044C56.9669 50.3523 57.5699 50.6573 58.2044 50.9276C58.8377 51.1974 59.4952 51.4297 60.0641 51.5941C60.6406 51.7607 61.1034 51.8509 61.3571 51.8509C61.5695 51.8509 61.8016 51.7469 62.0327 51.5328C62.2628 51.3197 62.4765 51.0108 62.6455 50.6402C62.985 49.8964 63.1249 48.9495 62.8989 48.1304L63.3381 48.0092C63.598 48.9516 63.4343 50.0091 63.06 50.8293C62.8722 51.2408 62.6266 51.6037 62.3423 51.8671C62.059 52.1294 61.7216 52.3064 61.3571 52.3064C61.0337 52.3064 60.5171 52.1992 59.9376 52.0317C59.3505 51.862 58.6756 51.6236 58.0258 51.3467C57.3771 51.0703 56.7464 50.7528 56.2512 50.4233C56.0036 50.2586 55.7847 50.0875 55.6133 49.9131C55.4441 49.7409 55.3077 49.552 55.2471 49.3501C55.0625 48.7345 54.7695 47.5792 54.6689 46.4114C54.6187 45.8276 54.6157 45.2322 54.7023 44.6957C54.7886 44.1613 54.9669 43.6649 55.2964 43.3008L55.6342 43.6064C55.3867 43.88 55.2309 44.2795 55.1521 44.7683C55.0735 45.2548 55.0744 45.8097 55.1228 46.3723Z" fill="#2F3D36"/>
<path fill-rule="evenodd" clip-rule="evenodd" d="M61.1304 46.7562C61.081 46.2617 60.6774 45.647 59.5588 45.1172L59.7539 44.7055C60.9434 45.269 61.5117 45.9906 61.5837 46.7109L61.1304 46.7562Z" fill="#2F3D36"/>
<path fill-rule="evenodd" clip-rule="evenodd" d="M65.4509 43.3222C65.4863 43.1792 65.5263 43.0179 65.5707 42.849L66.0113 42.9649C65.9661 43.1367 65.9295 43.2847 65.8959 43.4208C65.872 43.5176 65.8495 43.6083 65.8265 43.6975C65.7742 43.8998 65.7227 44.0784 65.6567 44.2236C65.5894 44.3716 65.4991 44.5033 65.3589 44.5934C65.2191 44.6831 65.057 44.7139 64.8799 44.7139C64.8217 44.7139 64.7644 44.713 64.7069 44.7121C64.6 44.7104 64.4929 44.7086 64.3797 44.7128C64.2096 44.7192 64.0601 44.7389 63.9425 44.783C63.8298 44.8252 63.759 44.8846 63.7188 44.9688C63.676 45.0583 63.6509 45.2112 63.7058 45.4718L63.26 45.5657C63.1934 45.2493 63.2063 44.9846 63.3078 44.7723C63.4118 44.5547 63.5915 44.4281 63.7826 44.3564C63.9687 44.2866 64.176 44.2646 64.3628 44.2576C64.4871 44.253 64.618 44.255 64.7322 44.2568C64.7859 44.2576 64.836 44.2584 64.8799 44.2584C65.0065 44.2584 65.0722 44.2361 65.1127 44.21C65.1529 44.1843 65.1954 44.1376 65.242 44.0351C65.2899 43.9297 65.3333 43.7856 65.3854 43.5836C65.4052 43.5071 65.427 43.4189 65.4509 43.3222Z" fill="#2F3D36"/>
<path fill-rule="evenodd" clip-rule="evenodd" d="M65.4171 42.6712C65.8948 42.6754 66.3169 42.6792 66.5806 42.6792C66.6845 42.6792 66.799 42.7123 66.8807 42.8109C66.9559 42.9018 66.9722 43.0117 66.9712 43.0986C66.9691 43.269 66.8986 43.4783 66.804 43.6913C66.6089 44.1301 66.2535 44.7081 65.8404 45.2933C65.4258 45.8807 64.9454 46.4862 64.494 46.981C64.2683 47.2284 64.0478 47.4504 63.8447 47.6294C63.6445 47.8058 63.4499 47.9507 63.2767 48.0327C62.8756 48.2227 62.3983 48.0574 61.975 47.8052C61.535 47.543 61.0711 47.1381 60.6472 46.7026C60.2215 46.2654 59.8272 45.788 59.5267 45.3722C59.3765 45.1643 59.2482 44.9696 59.1506 44.8012C59.056 44.6381 58.9804 44.4831 58.9494 44.3592C58.8882 44.1141 58.9297 43.8799 59.0819 43.6761C59.2256 43.4835 59.4558 43.3345 59.7423 43.2134C60.3152 42.9714 61.2101 42.8021 62.4268 42.6804C62.6515 42.6564 63.4744 42.6569 64.3301 42.6624C64.6956 42.6648 65.0709 42.6681 65.4171 42.6712ZM64.3272 43.118C63.45 43.1123 62.6644 43.1129 62.4748 43.1334L62.4739 43.1335L62.473 43.1336C61.2606 43.2548 60.4247 43.4196 59.9196 43.633C59.667 43.7398 59.5214 43.8489 59.4469 43.9486C59.3808 44.0371 59.3615 44.1294 59.3914 44.2487C59.406 44.307 59.4537 44.4159 59.5447 44.5728C59.6326 44.7245 59.752 44.9061 59.896 45.1054C60.1839 45.5039 60.564 45.9641 60.9736 46.3849C61.3848 46.8073 61.8169 47.1807 62.2082 47.4139C62.6163 47.657 62.9058 47.7043 63.0817 47.621C63.197 47.5664 63.3536 47.455 63.5435 47.2876C63.7304 47.1228 63.9389 46.9135 64.1574 46.674C64.5943 46.1951 65.063 45.6048 65.4683 45.0305C65.8752 44.454 66.2107 43.9046 66.3877 43.5063C66.4637 43.3353 66.5012 43.2121 66.5122 43.1346C66.2451 43.1341 65.8499 43.1306 65.4091 43.1267C65.0632 43.1236 64.6892 43.1203 64.3272 43.118ZM66.5145 43.0739C66.5145 43.0739 66.5146 43.0742 66.5147 43.075C66.5145 43.0743 66.5145 43.0739 66.5145 43.0739Z" fill="#2F3D36"/>
<path d="M72.5 28.5644H74.5625C74.9375 29.0227 75.75 29.5655 75.75 30.7519C75.75 32.1269 74.4583 33.5208 74.125 34L72.5 34.7519L70.4375 34.3769L69 33.2519L68.4375 31.5644L69.3125 29.6894L72.5 28.5644Z" fill="#2F3D36"/>
<path d="M72.032 29.8935C71.7486 30.5616 71.4368 32.0072 72.4572 32.4445C73.7327 32.9912 73.0038 29.8935 72.032 29.8935Z" fill="#FF6421"/>
<path fill-rule="evenodd" clip-rule="evenodd" d="M75.733 30.0554C75.8622 30.7255 75.7966 31.487 75.6715 32.0815C75.4056 33.3444 74.0359 34.7496 71.9326 34.8133C70.8712 34.8455 70.1137 34.5052 69.5526 33.9771C69.0004 33.4573 68.6514 32.7676 68.3757 32.1243L68.7944 31.9448C69.0653 32.5771 69.3845 33.1932 69.8648 33.6453C70.3363 34.089 70.9758 34.3865 71.9188 34.358C73.8243 34.3002 75.0057 33.0329 75.2257 31.9876C75.3435 31.428 75.3995 30.7318 75.2857 30.1416C75.1718 29.5505 74.902 29.12 74.4113 28.9728L74.5422 28.5364C75.2664 28.7537 75.604 29.3861 75.733 30.0554Z" fill="#2F3D36"/>
<path fill-rule="evenodd" clip-rule="evenodd" d="M52.4378 35.4847C52.6504 34.7735 53.1349 34.1017 53.7342 33.5655L54.0379 33.905C53.4831 34.4014 53.0566 35.0052 52.8743 35.6151C52.6942 36.2177 52.7516 36.8236 53.1572 37.3645C53.5941 37.9471 53.9965 38.2249 54.3796 38.3286C54.7634 38.4324 55.1665 38.3721 55.6283 38.199C56.0735 38.032 56.3073 37.8325 56.4988 37.5484C56.6474 37.3281 56.7679 37.0639 56.9287 36.7116C56.9922 36.5723 57.062 36.4192 57.1424 36.2496L57.5541 36.4446C57.4843 36.5919 57.4203 36.7322 57.3595 36.8655C57.1911 37.2348 57.0478 37.5492 56.8765 37.8031C56.6277 38.172 56.3148 38.428 55.7882 38.6255C55.2815 38.8155 54.7735 38.9071 54.2606 38.7683C53.747 38.6293 53.2669 38.27 52.7927 37.6378C52.2873 36.9638 52.2231 36.2031 52.4378 35.4847Z" fill="#2F3D36"/>
<path fill-rule="evenodd" clip-rule="evenodd" d="M53.0023 39.0946C52.3769 38.5643 51.7551 37.7522 51.1455 36.8379L51.5245 36.5852C52.1298 37.493 52.7227 38.2602 53.2969 38.7472C53.8737 39.2364 54.3787 39.401 54.8399 39.2311C55.7553 38.8938 57.1544 38.2851 57.741 38.0222L57.9273 38.4378C57.3396 38.7013 55.9285 39.3155 54.9974 39.6585C54.3046 39.9138 53.6251 39.6228 53.0023 39.0946Z" fill="#2F3D36"/>
<path fill-rule="evenodd" clip-rule="evenodd" d="M51.2733 35.1184C52.3789 33.6225 54.4905 33.2618 56.2264 33.5098C57.2104 33.6503 57.7394 34.4608 58.036 35.3894C58.3342 36.3234 58.4261 37.4588 58.4866 38.3975L58.032 38.4269C57.9711 37.4827 57.8808 36.4011 57.602 35.528C57.3215 34.6496 56.8787 34.0631 56.162 33.9607C54.4964 33.7228 52.5992 34.0909 51.6397 35.3891C51.2134 35.9658 50.8221 36.3087 50.4947 36.4998C50.1763 36.6855 49.8918 36.7417 49.6959 36.6883L49.8157 36.2488C49.8425 36.2561 49.9953 36.2637 50.2651 36.1063C50.5258 35.9542 50.8735 35.6593 51.2733 35.1184Z" fill="#2F3D36"/>
<path fill-rule="evenodd" clip-rule="evenodd" d="M76.5219 31.3869C76.498 31.5391 76.4764 31.6773 76.4653 31.8105C76.4538 31.9486 76.3923 32.0995 76.3146 32.2446C76.2342 32.3948 76.1243 32.5605 75.9941 32.7334C75.7336 33.0795 75.3811 33.4684 74.9906 33.8396C74.6 34.2109 74.1665 34.569 73.7422 34.8512C73.3225 35.1303 72.893 35.348 72.5132 35.4171C71.9345 35.5223 71.2474 35.518 70.5518 35.5136C70.4126 35.5128 70.273 35.5119 70.1339 35.5119C69.2841 35.5119 68.434 35.5432 67.6802 35.7751L67.5463 35.3397C68.3717 35.0858 69.2831 35.0563 70.1339 35.0563C70.2812 35.0563 70.4263 35.0572 70.5688 35.058C71.2646 35.0621 71.8989 35.0658 72.4317 34.9689C72.72 34.9165 73.0877 34.7394 73.4899 34.4719C73.8875 34.2074 74.3005 33.867 74.6768 33.5094C75.0531 33.1517 75.3877 32.7814 75.6302 32.4594C75.7515 32.2982 75.8471 32.1526 75.913 32.0295C75.9817 31.9012 76.0076 31.8167 76.0113 31.7727C76.0239 31.6214 76.0491 31.4612 76.0734 31.3062C76.08 31.2641 76.0866 31.2224 76.0928 31.1814C76.1228 30.9833 76.1472 30.7904 76.1472 30.5996C76.1472 30.2277 76.0555 29.8658 75.7128 29.5231L76.0349 29.2009C76.4818 29.6478 76.6027 30.1362 76.6027 30.5996C76.6027 30.8263 76.5739 31.0472 76.5432 31.2497C76.5361 31.2968 76.5289 31.3424 76.5219 31.3869Z" fill="#2F3D36"/>
<path fill-rule="evenodd" clip-rule="evenodd" d="M48.5079 44.4205C48.5079 44.4205 48.5082 44.4205 48.5089 44.4207C48.5082 44.4206 48.5079 44.4205 48.5079 44.4205ZM48.5618 44.4498C48.5968 44.4737 48.6418 44.5113 48.6963 44.5668C48.8365 44.7096 48.9978 44.9275 49.1658 45.1903C49.4802 45.6823 49.7889 46.2858 49.9899 46.72C49.9887 46.8021 50.0068 46.8774 50.0242 46.9332C50.0559 47.0347 50.1079 47.1421 50.1703 47.2491C50.2959 47.4644 50.4852 47.7153 50.7172 47.974C51.1815 48.4916 51.8444 49.071 52.5826 49.4883C54.7754 50.7277 56.5066 52.1501 57.6857 53.1188C57.995 53.373 58.2664 53.5959 58.4981 53.7761C58.5686 53.831 58.6424 53.8894 58.7199 53.9506C59.8454 54.8404 61.73 56.3304 65.2444 56.3304C66.7358 56.3304 68.9249 55.9699 71.1489 55.5352C72.2351 55.3229 73.323 55.0943 74.3524 54.8781C75.456 54.6463 76.4924 54.4286 77.3878 54.26L77.3934 54.259L77.3991 54.2577C79.0045 53.8919 81.6501 53.2147 84.0323 52.371C85.2227 51.9494 86.3564 51.4832 87.2641 50.9894C87.7055 50.7494 88.108 50.4953 88.44 50.2274C88.335 50.8909 88.275 51.461 88.2234 51.9518C88.2109 52.0705 88.1989 52.1846 88.1868 52.2942C88.0986 53.0975 88.0107 53.6197 87.7617 54.0325C87.5214 54.4309 87.1044 54.7661 86.2565 55.1094C85.4045 55.4542 84.1582 55.7913 82.305 56.2167C79.277 56.9116 76.1273 57.6066 73.3522 58.2188C72.7332 58.3554 72.1327 58.4879 71.5565 58.6153C68.407 59.3119 65.9599 59.8621 65.1551 60.1097C64.8053 60.2174 64.1615 60.2785 63.2909 60.3014C62.4318 60.324 61.3869 60.309 60.2567 60.2786C59.5279 60.2591 58.7633 60.2331 57.9922 60.2069C56.3801 60.1521 54.7398 60.0963 53.3394 60.0963C52.4535 60.0963 51.4345 60.3875 50.3832 60.8384C49.3273 61.2912 48.2158 61.9153 47.1383 62.6041C45.4601 63.6768 43.8503 64.9154 42.6418 65.9314C43.2874 64.2322 44.0864 62.0342 44.7661 59.9632C45.1882 58.677 45.5656 57.436 45.8317 56.3922C46.0943 55.3619 46.2594 54.4845 46.2325 53.9464C46.204 53.3761 46.3045 52.494 46.49 51.4704C46.6742 50.4535 46.9378 49.3193 47.2246 48.2552C47.5116 47.1904 47.82 46.2019 48.0927 45.4755C48.2294 45.1111 48.3542 44.8209 48.4596 44.6221C48.4996 44.5467 48.5338 44.49 48.5618 44.4498ZM49.6776 44.8632C50.0322 45.418 50.3729 46.094 50.5789 46.5472L50.631 46.6617L50.601 46.7417C50.6018 46.7449 50.6029 46.7484 50.6041 46.7524C50.6172 46.7943 50.6454 46.858 50.6951 46.9432C50.7935 47.112 50.9549 47.3293 51.1694 47.5684C51.598 48.0462 52.2107 48.5804 52.8815 48.9595C55.1269 50.2286 56.9144 51.698 58.0907 52.665C58.3917 52.9123 58.6526 53.1268 58.871 53.2967C58.9422 53.3521 59.0162 53.4105 59.0933 53.4715C60.1979 54.3444 61.9424 55.723 65.2444 55.723C66.6685 55.723 68.802 55.375 71.0323 54.9391C72.0922 54.7319 73.181 54.5034 74.2161 54.2861C75.3305 54.0521 76.3828 53.8313 77.2697 53.6642C78.8638 53.3008 81.4809 52.6302 83.8296 51.7985C85.006 51.3818 86.1061 50.9279 86.9739 50.4559C87.8581 49.975 88.4424 49.5057 88.6638 49.083L89.2301 49.2861C88.9983 50.3938 88.9052 51.2772 88.8277 52.0126C88.8151 52.1324 88.8029 52.2482 88.7906 52.3605C88.7042 53.1478 88.6099 53.8024 88.2818 54.3462C87.9451 54.9045 87.3902 55.3057 86.4844 55.6724C85.5824 56.0374 84.2928 56.3836 82.4409 56.8087C79.4102 57.5042 76.2575 58.1998 73.4825 58.8121C72.8636 58.9487 72.2634 59.0811 71.6876 59.2084C68.5202 59.9089 66.1081 60.452 65.3337 60.6903C64.8939 60.8256 64.171 60.8859 63.3068 60.9086C62.431 60.9316 61.3728 60.9162 60.2404 60.8858C59.5014 60.866 58.731 60.8398 57.9571 60.8134C56.3511 60.7588 54.7296 60.7037 53.3394 60.7037C52.5732 60.7037 51.6425 60.9592 50.6226 61.3966C49.6072 61.8321 48.5261 62.4379 47.4655 63.1158C45.3441 64.4718 43.3286 66.1011 42.1235 67.1856L41.6375 66.8493C42.3245 65.0915 43.3489 62.3333 44.189 59.7738C44.6091 58.4938 44.9818 57.2672 45.2431 56.2421C45.5079 55.2034 45.6476 54.4106 45.6259 53.9768C45.5937 53.3323 45.7057 52.3922 45.8923 51.3621C46.0801 50.3252 46.3479 49.1741 46.6382 48.0971C46.9282 47.0208 47.2424 46.0125 47.524 45.2621C47.6643 44.8882 47.7997 44.5701 47.923 44.3375C47.9841 44.2222 48.0476 44.1178 48.1129 44.036C48.1457 43.995 48.1843 43.9529 48.2291 43.9169C48.2721 43.8824 48.3367 43.8408 48.4207 43.824C48.5794 43.7922 48.7229 43.8424 48.8291 43.9016C48.9372 43.9617 49.0382 44.0481 49.1298 44.1414C49.3136 44.3286 49.5014 44.5875 49.6776 44.8632ZM50.5969 46.7223C50.597 46.7223 50.5971 46.7233 50.5972 46.7252C50.5969 46.7232 50.5968 46.7223 50.5969 46.7223Z" fill="#2F3D36"/>
<path fill-rule="evenodd" clip-rule="evenodd" d="M72.9529 28.6827C71.3221 28.9744 69.9906 29.6018 69.5701 29.9101C69.3929 30.0401 69.2001 30.3231 69.0055 30.7573C68.8148 31.1826 68.6362 31.7207 68.4706 32.3227C68.1397 33.5261 67.8679 34.9595 67.6555 36.2032L67.2065 36.1265C67.4193 34.8799 67.6942 33.4281 68.0314 32.2019C68.1999 31.5892 68.3857 31.0263 68.5898 30.5709C68.79 30.1243 69.0224 29.7468 69.3007 29.5427C69.7914 29.1829 71.1931 28.5347 72.8726 28.2343C74.5555 27.9332 76.5662 27.9724 78.2442 29.0488L77.9982 29.4322C76.4569 28.4435 74.5804 28.3915 72.9529 28.6827Z" fill="#2F3D36"/>
<path fill-rule="evenodd" clip-rule="evenodd" d="M54.3983 52.942C56.0208 51.7102 57.9316 50.6816 59.1982 50.1096L59.3857 50.5248C58.1416 51.0866 56.2623 52.0988 54.6737 53.3048C53.8794 53.9078 53.1647 54.554 52.6388 55.2109C52.1108 55.8703 51.7884 56.5213 51.7444 57.1363L51.29 57.1038C51.3433 56.3582 51.7274 55.6203 52.2832 54.9262C52.8409 54.2296 53.5871 53.5578 54.3983 52.942Z" fill="#2F3D36"/>
<path fill-rule="evenodd" clip-rule="evenodd" d="M38 55.3734C39.6193 53.8787 45.6624 50.2221 57.0487 47.3025L57.1618 47.7438C45.8072 50.6553 39.8482 54.2874 38.309 55.7082L38 55.3734Z" fill="#2F3D36"/>
<path fill-rule="evenodd" clip-rule="evenodd" d="M51.0092 51.5632C53.6078 50.3245 56.5641 49.2518 58.4944 48.6422L58.6316 49.0766C56.7151 49.6818 53.7796 50.7472 51.2052 51.9745C49.9176 52.5883 48.7269 53.2395 47.8007 53.8905C46.8644 54.5487 46.237 55.1805 46.0203 55.744L45.5951 55.5805C45.8643 54.8806 46.5935 54.1823 47.5388 53.5178C48.4943 52.8462 49.7104 52.1824 51.0092 51.5632Z" fill="#2F3D36"/>
<path fill-rule="evenodd" clip-rule="evenodd" d="M81.694 51.202C78.1424 49.7391 73.8745 48.5946 71.028 47.9889L71.1228 47.5433C73.9857 48.1525 78.2821 49.3039 81.8675 50.7808C83.6589 51.5187 85.2849 52.3427 86.467 53.228C87.637 54.1043 88.4317 55.0854 88.4317 56.1482H87.9762C87.9762 55.3158 87.3435 54.4536 86.194 53.5927C85.0566 52.7408 83.471 51.934 81.694 51.202Z" fill="#2F3D36"/>
<path fill-rule="evenodd" clip-rule="evenodd" d="M95.6338 45.0544C92.3015 43.3882 87.5058 42.1609 69.5326 45.0755L69.4597 44.6258C87.4443 41.7094 92.3669 42.9116 95.8375 44.6469L95.6338 45.0544Z" fill="#2F3D36"/>
<path fill-rule="evenodd" clip-rule="evenodd" d="M76.7411 46.1746C73.8994 46.0832 72.0238 46.5555 71.1809 46.9961L70.9698 46.5924C71.9086 46.1017 73.8718 45.6265 76.7558 45.7193C79.6468 45.8123 83.4783 46.4764 88.1644 48.2825C92.8415 50.0851 95.5247 51.7481 96.9757 53.1091C97.7015 53.7898 98.1279 54.4034 98.3357 54.9303C98.5435 55.457 98.5377 55.9127 98.369 56.2501L97.9615 56.0463C98.056 55.8573 98.0876 55.5426 97.912 55.0975C97.7365 54.6526 97.3586 54.0928 96.664 53.4413C95.2744 52.1379 92.653 50.5007 88.0006 48.7075C83.357 46.9178 79.5759 46.2658 76.7411 46.1746Z" fill="#2F3D36"/>
</g>
</g>
<defs>
<clipPath id="clip0_108_634">
<rect width="105.574" height="66.3712" fill="white" transform="translate(0.425903 0.814377)"/>
</clipPath>
<clipPath id="clip1_108_634">
<rect width="68" height="66.3712" fill="white" transform="translate(38 0.814377)"/>
</clipPath>
</defs>
</svg>
